<svg width="38" height="31" viewBox="0 0 38 31" fill="none" xmlns="http://www.w3.org/2000/svg">
<path d="M36.9293 20.4327C31.4853 14.9998 31.4853 6.16893 36.9293 0.717797C31.4853 6.15076 22.6366 6.15076 17.1745 0.717797C22.6184 6.15076 22.6184 14.9816 17.1745 20.4327C22.6184 14.9998 31.4671 14.9998 36.9293 20.4327Z" stroke="#D4792F" stroke-width="2" stroke-miterlimit="10"/>
<path d="M7.30608 20.4326C5.48536 18.6156 5.48536 15.672 7.30608 13.8549C5.48536 15.672 2.5358 15.672 0.715078 13.8549C2.5358 15.672 2.5358 18.6156 0.715078 20.4326C2.5358 18.6156 5.48536 18.6156 7.30608 20.4326Z" stroke="#D4792F" stroke-width="2" stroke-miterlimit="10"/>
<path d="M17.1926 30.281C14.4615 27.5554 14.4615 23.14 17.1926 20.4326C14.4615 23.1582 10.0372 23.1582 7.3243 20.4326C10.0554 23.1582 10.0554 27.5736 7.3243 30.281C10.0554 27.5554 14.4797 27.5554 17.1926 30.281Z" stroke="#D4792F" stroke-width="2" stroke-miterlimit="10"/>
</svg>
