<svg width="23" height="31" viewBox="0 0 23 31" fill="none" xmlns="http://www.w3.org/2000/svg">
<path d="M17.495 7.01064C17.495 3.69519 14.8019 1.00749 11.4797 1.00749C8.15759 1.00749 5.46445 3.69519 5.46445 7.01064V16.5036C5.46445 19.819 8.15759 22.5067 11.4797 22.5067C14.8019 22.5067 17.495 19.819 17.495 16.5036V7.01064Z" stroke="#ffffff" stroke-width="2" stroke-miterlimit="10"/>
<path d="M21.9342 15.8888C21.9342 21.5664 17.3321 26.1592 11.643 26.1592H11.2987C5.60955 26.1592 1.00749 21.5664 1.00749 15.8888" stroke="#ffffff" stroke-width="2" stroke-miterlimit="10" stroke-linecap="round"/>
<path d="M21.934 14.0987C19.4881 11.6577 15.502 11.6577 13.056 14.0987C15.502 11.6577 15.502 7.67969 13.056 5.23865C15.502 7.67969 19.4881 7.67969 21.934 5.23865C19.4881 7.67969 19.4881 11.6577 21.934 14.0987Z" fill="white" stroke="#D4792F" stroke-width="2" stroke-miterlimit="10"/>
<path d="M11.2986 26.1592V29.9925" stroke="#ffffff" stroke-width="2" stroke-miterlimit="10" stroke-linecap="round"/>
</svg>
