<svg width="33" height="34" viewBox="0 0 33 34" fill="none" xmlns="http://www.w3.org/2000/svg">
<path d="M15.8867 16.8877C20.2807 16.8877 23.8427 13.3329 23.8427 8.94773C23.8427 4.5626 20.2807 1.00775 15.8867 1.00775C11.4927 1.00775 7.93065 4.5626 7.93065 8.94773C7.93065 13.3329 11.4927 16.8877 15.8867 16.8877Z" stroke="#11202A" stroke-width="2" stroke-miterlimit="10"/>
<path d="M1.00775 32.1708C1.00775 23.9776 7.65893 17.3218 15.8868 17.3218C21.8674 17.3218 27.0144 20.8486 29.3885 25.9128" stroke="#11202A" stroke-width="2" stroke-miterlimit="10"/>
<path d="M20.0731 20.9571C23.444 24.3212 28.9172 24.3212 32.2881 20.9571C28.9172 24.3212 28.9172 29.7834 32.2881 33.1474C28.9172 29.7834 23.444 29.7834 20.0731 33.1474C23.444 29.7834 23.444 24.3212 20.0731 20.9571Z" fill="white" stroke="#D4792F" stroke-width="2" stroke-miterlimit="10"/>
</svg>
