<svg width="40" height="34" viewBox="0 0 40 34" fill="none" xmlns="http://www.w3.org/2000/svg">
<path d="M39.2837 33.0379C35.7096 29.4711 29.9108 29.4711 26.3367 33.0379C29.9108 29.4711 29.9108 23.684 26.3367 20.1171C29.9108 23.684 35.7096 23.684 39.2837 20.1171C35.7096 23.684 35.7096 29.4711 39.2837 33.0379Z" stroke="#D4792F" stroke-width="2" stroke-miterlimit="10"/>
<path d="M13.9365 7.17809C12.1495 5.39465 9.2501 5.39465 7.46305 7.17809C9.2501 5.39465 9.2501 2.5011 7.46305 0.717663C9.2501 2.5011 12.1495 2.5011 13.9365 0.717663C12.1495 2.5011 12.1495 5.39465 13.9365 7.17809Z" stroke="#D4792F" stroke-width="2" stroke-miterlimit="10"/>
<path d="M24.3306 3.46559L2.46664 25.2854V31.5275H8.72131L30.5853 9.70763C31.2965 8.99789 31.2965 7.85139 30.5853 7.14165L26.9018 3.46559C26.1906 2.75585 25.0418 2.75585 24.3306 3.46559Z" stroke="#ffffff" stroke-width="2" stroke-miterlimit="10"/>
<path d="M4.21733 13.0562L0.716178 16.5503" stroke="#D4792F" stroke-width="2" stroke-miterlimit="10"/>
<path d="M4.21733 16.5503L0.716178 13.0562" stroke="#D4792F" stroke-width="2" stroke-miterlimit="10"/>
</svg>
