<svg width="44" height="34" viewBox="0 0 44 34" fill="none" xmlns="http://www.w3.org/2000/svg">
<path d="M19.651 15.8469C22.4849 13.0188 22.4849 8.42531 19.651 5.59716C22.4849 8.42531 27.0877 8.42531 29.9215 5.59716C27.0877 8.42531 27.0877 13.0188 29.9215 15.8469C27.0877 13.0188 22.4849 13.0188 19.651 15.8469Z" stroke="#D4792F" stroke-width="2" stroke-miterlimit="10"/>
<path d="M14.5066 20.9628C15.9325 19.5398 15.9325 17.252 14.5066 15.8469C15.9325 17.27 18.2249 17.27 19.6328 15.8469C18.2068 17.27 18.2068 19.5578 19.6328 20.9628C18.2068 19.5398 15.9145 19.5398 14.5066 20.9628Z" stroke="#D4792F" stroke-width="2" stroke-miterlimit="10"/>
<path d="M42.3399 12.1542L21.8891 32.5817L1.42027 12.1542L12.5753 1.0037H31.203L42.3399 12.1542Z" stroke="#ffffff" stroke-width="2" stroke-miterlimit="10"/>
</svg>
