<svg width="43" height="32" viewBox="0 0 43 32" fill="none" xmlns="http://www.w3.org/2000/svg">
<path d="M24.3314 20.7522C21.2097 17.6368 16.1278 17.6368 13.0061 20.7522C16.1278 17.6368 16.1278 12.5652 13.0061 9.44978C16.1278 12.5652 21.2097 12.5652 24.3314 9.44978C21.2097 12.5652 21.2097 17.6368 24.3314 20.7522Z" stroke="#D4792F" stroke-width="2" stroke-miterlimit="10"/>
<path d="M29.994 26.4217C28.4331 24.864 25.8922 24.864 24.3313 26.4217C25.8922 24.864 25.8922 22.3281 24.3313 20.7704C25.8922 22.3281 28.4331 22.3281 29.994 20.7704C28.4331 22.3281 28.4331 24.864 29.994 26.4217Z" stroke="#D4792F" stroke-width="2" stroke-miterlimit="10"/>
<path d="M40.3756 1.00923H2.60639C1.7243 1.00923 1.00923 1.72285 1.00923 2.60316V29.1205C1.00923 30.0008 1.7243 30.7144 2.60639 30.7144H40.3756C41.2577 30.7144 41.9728 30.0008 41.9728 29.1205V2.60316C41.9728 1.72285 41.2577 1.00923 40.3756 1.00923Z" stroke="#ffffff" stroke-width="2" stroke-miterlimit="10"/>
<path d="M15.6014 1.00923H20.538C21.6452 1.00923 22.5345 1.62506 22.5345 2.40391V4.03408C22.5345 4.9035 23.5327 5.60991 24.7669 5.60991H39.7221C40.9744 5.60991 41.9908 6.31631 41.9908 7.20384V9.79398" stroke="#ffffff" stroke-width="2" stroke-miterlimit="10"/>
<path d="M33.0614 17.7092L29.9941 20.7522" stroke="#D4792F" stroke-width="2" stroke-miterlimit="10"/>
<path d="M33.0614 20.7522L29.9941 17.7092" stroke="#D4792F" stroke-width="2" stroke-miterlimit="10"/>
</svg>
