<?xml version="1.0" encoding="UTF-8"?>
<svg id="Layer_1" data-name="Layer 1" xmlns="http://www.w3.org/2000/svg" viewBox="0 0 316.8 316.8">
  <defs>
    <style>
      .cls-1 {
        fill: #d4792f;
      }

      .cls-2 {
        fill: #11202a;
      }

      .cls-3 {
        fill: #812a2c;
      }

      .cls-4 {
        fill: #47a28e;
      }

      .cls-5 {
        fill: #283845;
      }

      .cls-6 {
        fill: #005645;
      }

      .cls-7 {
        fill: #0b1520;
      }

      .cls-8 {
        fill: #00715d;
      }

      .cls-9 {
        fill: #a5383e;
      }

      .cls-10 {
        fill: #5d1e1e;
      }

      .cls-11 {
        fill: #008c76;
      }

      .cls-12 {
        fill: #063c30;
      }
    </style>
  </defs>
  <path class="cls-7" d="M0,0v316.8h316.8V0H0Z"/>
  <path class="cls-2" d="M36.83,293.69c-7.51.36-14.84,3.22-20.71,8.71h44.5l-1.56-1.41c-6.44-5.28-14.33-7.67-22.23-7.3Z"/>
  <path class="cls-2" d="M53.66,278.4c0,8.05,2.88,15.99,8.74,22.27v-44.54c-5.87,6.28-8.74,14.22-8.74,22.27Z"/>
  <path class="cls-2" d="M14.4,256.13v44.54c5.87-6.28,8.74-14.22,8.74-22.27s-2.88-15.99-8.74-22.27Z"/>
  <path class="cls-8" d="M297.8,155.67c-19.76-17.89-44.82-26.47-69.81-25.87-24.99.6-49.69,10.36-68.74,29.44h0c-13.06,13.04-19.52,30.04-19.52,47.15s6.19,33.35,18.68,46.27v-22.26c0-13.25,10.75-24,24-24s24,10.75,24,24v-24c0-13.25,10.75-24,24-24s24,10.75,24,24v-24c0-13.25,10.75-24,24-24s24,10.75,24,24v-23.16l-.41.41-4.19-3.98ZM194.4,194.4c-6.63-6.63-17.37-6.63-24,0,6.63-6.63,6.63-17.37,0-24,6.63,6.63,17.37,6.63,24,0-6.63,6.63-6.63,17.37,0,24Z"/>
  <path class="cls-8" d="M278.4,206.4c-13.25,0-24,10.75-24,24v48c0-13.25,10.75-24,24-24s24,10.75,24,24v-48c0-13.25-10.75-24-24-24Z"/>
  <path class="cls-8" d="M300.68,14.4h-140.57c19.55,19.12,44.86,28.62,70.28,28.62,25.42,0,50.74-9.5,70.28-28.62Z"/>
  <path class="cls-3" d="M62.4,86.4v23.15l1.27,1.27-.43.42c-.28.28-.54.56-.8.84.89,25.73,22.01,46.32,47.96,46.32s48-21.49,48-48v-48c0,13.25-10.75,24-24,24s-24-10.75-24-24V14.4h-48v72ZM74.4,26.4c6.63,6.63,17.37,6.63,24,0-6.63,6.63-6.63,17.37,0,24-6.63-6.63-17.37-6.63-24,0,6.63-6.63,6.63-17.37,0-24Z"/>
  <path class="cls-3" d="M110.4,254.4c-25.94,0-47.07,20.58-47.96,46.31.26.28.53.57.8.84l.43.42-.43.43h95.16c0-26.51-21.49-48-48-48Z"/>
  <path class="cls-11" d="M273.78,86.4c0,25.42,9.5,50.74,28.62,70.29V16.11c-19.12,19.55-28.62,44.86-28.62,70.29Z"/>
  <path class="cls-11" d="M278.4,254.4c-13.25,0-24,10.75-24,24v24h48v-24c0-13.25-10.75-24-24-24Z"/>
  <path class="cls-11" d="M230.4,230.4c13.25,0,24,10.75,24,24v-48c0-13.25-10.75-24-24-24s-24,10.75-24,24v48c0-13.25,10.75-24,24-24Z"/>
  <path class="cls-11" d="M170.4,170.4c6.63,6.63,6.63,17.37,0,24,6.63-6.63,17.37-6.63,24,0-6.63-6.63-6.63-17.37,0-24-6.63,6.63-17.37,6.63-24,0Z"/>
  <path class="cls-4" d="M278.4,158.4c-13.25,0-24,10.75-24,24v48c0-13.25,10.75-24,24-24s24,10.75,24,24v-48c0-13.25-10.75-24-24-24Z"/>
  <path class="cls-4" d="M254.4,254.4c0-13.25-10.75-24-24-24s-24,10.75-24,24v48h48v-48Z"/>
  <path class="cls-2" d="M38.4,110.4c13.25,0,24-10.75,24-24V14.4H14.4v72c0,13.25,10.75,24,24,24Z"/>
  <path class="cls-2" d="M15.25,253.55c6.41,6.44,14.73,9.59,23.15,9.59s16.75-3.15,23.15-9.59h0c.29-.29.56-.59.84-.89v-70.26c0-13.25-10.75-24-24-24s-24,10.75-24,24v71.15l.42-.42.42.43ZM26.4,218.4c6.63,6.63,17.37,6.63,24,0-6.63,6.63-6.63,17.37,0,24-6.63-6.63-17.37-6.63-24,0,6.63-6.63,6.63-17.37,0-24Z"/>
  <path class="cls-5" d="M15.25,109.55c6.41,6.44,14.73,9.59,23.15,9.59s16.75-3.15,23.15-9.59l.42-.43.42.42v-23.15c0,13.25-10.75,24-24,24s-24-10.75-24-24v23.15l.42-.42.42.43Z"/>
  <path class="cls-5" d="M14.4,112.13v44.54c5.87-6.28,8.74-14.22,8.74-22.27s-2.88-15.99-8.74-22.27Z"/>
  <path class="cls-5" d="M53.66,134.4c0,8.05,2.88,15.99,8.74,22.27v-44.54c-5.87,6.28-8.74,14.22-8.74,22.27Z"/>
  <path class="cls-5" d="M38.4,158.4c13.25,0,24,10.75,24,24v-22.27c-.28-.29-.55-.59-.84-.88l-2.51-2.26c-6.44-5.28-14.33-7.67-22.23-7.3-7.89.38-15.58,3.51-21.58,9.55l-.42.43-.42-.42v23.16c0-13.25,10.75-24,24-24Z"/>
  <path class="cls-5" d="M50.4,242.4c-6.63-6.63-6.63-17.37,0-24-6.63,6.63-17.37,6.63-24,0,6.63,6.63,6.63,17.37,0,24,6.63-6.63,17.37-6.63,24,0Z"/>
  <path class="cls-6" d="M206.4,230.4c0-13.25-10.75-24-24-24s-24,10.75-24,24v22.26c.28.29.55.6.85.89l.42.42-1.27,1.27v47.16c0-13.25,10.75-24,24-24s24,10.75,24,24v-72Z"/>
  <path class="cls-10" d="M134.4,86.4c13.25,0,24-10.75,24-24V16.11c-.28-.29-.56-.58-.85-.87l-.42-.42.42-.42h-47.15v48c0,13.25,10.75,24,24,24Z"/>
  <path class="cls-9" d="M62.4,206.4v46.26c12.49-12.91,18.68-29.53,18.68-46.27s-6.19-33.35-18.68-46.27v46.27Z"/>
  <path class="cls-9" d="M157.99,255.65l-2.93-2.78c-13.1-11.87-29.69-17.54-46.26-17.15-16.57.39-32.93,6.85-45.56,19.51h0c-.29.29-.57.59-.84.89v44.54s.03.03.04.04c.89-25.73,22.01-46.31,47.96-46.31s48,21.49,48,48v-47.16l-.41.41Z"/>
  <path class="cls-9" d="M158.4,110.4c0,26.51-21.49,48-48,48s-47.07-20.59-47.96-46.32c-.01.01-.03.03-.04.04v44.54c.28.3.55.59.84.88h0c13.03,13.07,30.04,19.53,47.15,19.53,17.11,0,34.12-6.46,47.15-19.53l.03-.03c19.68-19.66,29.44-45.34,29.44-71.12s-9.5-50.74-28.62-70.29v94.29Z"/>
  <path class="cls-9" d="M98.4,50.4c-6.63-6.63-6.63-17.37,0-24-6.63,6.63-17.37,6.63-24,0,6.63,6.63,6.63,17.37,0,24,6.63-6.63,17.37-6.63,24,0Z"/>
  <path class="cls-12" d="M182.4,278.4c-13.25,0-24,10.75-24,24h48c0-13.25-10.75-24-24-24Z"/>
  <path class="cls-1" d="M302.4,16.11c.28-.29.56-.58.85-.87l.42-.42-1.69-1.69-.42.42c-.29.29-.58.57-.87.85-19.55,19.12-44.86,28.62-70.28,28.62-25.42,0-50.74-9.5-70.28-28.62-.29-.28-.58-.56-.87-.85l-.42-.42-1.28,1.28-.42.42.42.42c.29.29.56.58.85.87,19.13,19.55,28.62,44.86,28.62,70.29s-9.77,51.47-29.44,71.12l-.03.03c-13.03,13.07-30.04,19.53-47.15,19.53-17.11,0-34.12-6.46-47.15-19.53h0c-.29-.29-.57-.59-.84-.88-5.87-6.28-8.74-14.22-8.74-22.27s2.88-15.99,8.74-22.27c.01-.01.03-.03.04-.04.26-.28.53-.57.8-.84l.43-.42-1.27-1.27-.42-.42-.42.43c-6.41,6.44-14.73,9.59-23.15,9.59s-16.75-3.15-23.15-9.59l-.42-.43-.42.42-1.27,1.27.43.42c.29.29.57.59.85.89,5.87,6.28,8.74,14.22,8.74,22.27s-2.88,15.99-8.74,22.27c-.28.3-.55.6-.85.89l-.43.42,1.27,1.27.42.42.42-.43c6.01-6.04,13.69-9.18,21.58-9.55,7.89-.38,15.78,2.02,22.23,7.3l2.51,2.26c.29.29.56.59.84.88,12.49,12.91,18.68,29.53,18.68,46.27s-6.19,33.35-18.68,46.27c-.28.29-.55.6-.84.89h0c-6.41,6.44-14.73,9.59-23.15,9.59s-16.75-3.15-23.15-9.59l-.42-.43-.42.42-1.27,1.27.43.42c.29.29.57.59.85.89,5.87,6.28,8.74,14.22,8.74,22.27s-2.88,15.99-8.74,22.27c-.28.3-.55.6-.85.89l-.43.42,1.69,1.69.42-.43c.29-.29.58-.57.88-.84,5.87-5.49,13.19-8.35,20.71-8.71,7.89-.38,15.78,2.02,22.23,7.3l1.56,1.41,1.38,1.24,1.24-1.24.43-.43-.43-.42c-.28-.28-.54-.56-.8-.84-.01-.02-.03-.03-.04-.04-5.87-6.28-8.74-14.22-8.74-22.27s2.88-15.99,8.74-22.27c.28-.3.55-.59.84-.88h0c12.63-12.66,28.98-19.12,45.56-19.51,16.57-.39,33.16,5.28,46.26,17.15l2.93,2.78.41-.41,1.27-1.27-.42-.42c-.29-.29-.56-.59-.85-.89-12.49-12.91-18.68-29.53-18.68-46.27s6.46-34.11,19.52-47.14h0c19.05-19.09,43.75-28.86,68.74-29.45,24.99-.6,50.04,7.98,69.81,25.87l4.19,3.98.41-.41,1.27-1.27-.42-.42c-.29-.29-.56-.58-.85-.87-19.12-19.55-28.62-44.86-28.62-70.29s9.5-50.74,28.62-70.29Z"/>
</svg>