<svg width="321" height="271" viewBox="0 0 321 271" fill="none" xmlns="http://www.w3.org/2000/svg">
<path d="M297.002 233.559V231.794C308.728 231.794 319.99 222.555 319.99 208.839H307.967C307.967 208.839 305.317 228.934 290.723 228.934V194.403H279.807V256.515H290.723V237.563C305.327 237.563 307.789 256.515 307.789 256.515H320.02C320.02 243.272 308.995 233.559 297.002 233.559Z" fill="#283845"/>
<path d="M272.342 209.775C269.406 209.775 266.459 211.166 264.758 212.517C261.416 215.169 258.865 219.143 257.442 222.584H256.295L256.423 210.83H247.099V256.515H258.183V235.206C258.707 232.297 259.488 229.773 260.517 227.653C261.545 225.523 262.89 223.886 264.561 222.722C266.232 221.559 268.209 220.977 270.503 220.977C271.324 220.977 272.214 221.056 273.183 221.194C274.152 221.342 275.101 221.588 276.04 221.933L276.485 210.318C275.664 210.081 274.913 209.943 274.241 209.884C273.568 209.825 272.935 209.795 272.352 209.795L272.342 209.775ZM256.245 226.548V226.528C256.245 226.528 256.245 226.538 256.245 226.548Z" fill="#283845"/>
<path d="M242.086 243.972C241.997 241.842 241.958 239.791 241.958 237.809V229.25C241.958 224.704 241.285 220.997 239.931 218.117C238.576 215.238 236.529 213.108 233.771 211.738C231.012 210.367 227.492 209.687 223.211 209.687C220.393 209.687 217.812 209.982 215.469 210.564C213.126 211.146 211.039 212.053 209.22 213.276C207.401 214.499 205.878 215.968 204.642 217.684C203.406 219.399 202.477 221.421 201.824 223.758L211.761 226.814C212.167 224.773 212.928 223.136 214.045 221.884C215.163 220.632 216.497 219.715 218.05 219.133C219.602 218.551 221.233 218.255 222.934 218.255C225.752 218.255 227.789 218.906 229.045 220.218C230.3 221.529 230.933 223.087 230.933 224.892C230.933 226.114 230.637 227.031 230.053 227.643C229.47 228.254 228.54 228.708 227.285 228.994C226.019 229.289 224.397 229.575 222.4 229.871C218.762 230.394 215.598 231.025 212.898 231.745C210.199 232.474 207.945 233.372 206.125 234.456C204.306 235.531 202.942 236.922 202.032 238.608C201.122 240.294 200.667 242.335 200.667 244.721C200.667 247.581 201.241 249.967 202.378 251.88C203.525 253.803 205.087 255.243 207.084 256.209C209.082 257.175 211.395 257.649 213.857 257.649C223.646 257.649 228.699 252.373 230.834 249.021H232.199C232.268 249.76 232.347 250.569 232.416 251.269C232.594 253.133 232.792 254.878 233.029 256.505H242.966C242.729 254.523 242.541 252.472 242.393 250.342C242.244 248.222 242.126 246.092 242.037 243.962L242.086 243.972ZM228.669 244.061C227.67 245.254 226.583 246.26 225.416 247.078C224.239 247.897 223.053 248.508 221.856 248.912C220.66 249.316 219.464 249.524 218.297 249.524C216.3 249.524 214.658 248.971 213.373 247.867C212.087 246.763 211.435 245.214 211.435 243.242C211.435 241.674 211.811 240.432 212.582 239.535C213.343 238.628 214.372 237.937 215.657 237.434C216.942 236.941 218.396 236.537 220.007 236.212C221.619 235.896 223.231 235.62 224.842 235.383C226.454 235.147 227.997 234.802 229.46 234.338C230.043 234.151 230.577 233.934 231.081 233.697L231.22 239.84C230.518 241.467 229.668 242.887 228.669 244.08V244.061Z" fill="#283845"/>
<path d="M189.613 212.704C186.736 210.702 183.246 209.696 179.142 209.696C169.354 209.696 165.488 215.149 163.856 219.32H162.452L162.521 210.83H153.197V271H164.281V249.011H165.745C167.801 252.955 172.132 257.639 179.765 257.639C183.868 257.639 187.299 256.603 190.088 254.533C192.876 252.462 194.962 249.642 196.337 246.062C197.711 242.483 198.403 238.411 198.403 233.875C198.403 229.043 197.652 224.803 196.149 221.164C194.666 217.526 192.471 214.696 189.603 212.694L189.613 212.704ZM185.569 241.527C184.739 243.775 183.542 245.51 181.95 246.763C180.368 248.015 178.43 248.646 176.146 248.646C174.624 248.646 173.21 248.35 171.924 247.758C170.649 247.187 169.522 246.388 168.582 245.362C167.653 244.347 166.862 243.213 166.209 241.96C165.567 240.708 165.072 239.456 164.746 238.204C164.42 236.951 164.271 235.748 164.271 234.585V233.096C164.271 231.518 164.509 229.921 164.973 228.294C165.438 226.657 166.17 225.128 167.159 223.699C168.167 222.279 169.393 221.125 170.857 220.247C172.33 219.38 174.03 218.936 175.968 218.936C178.193 218.936 180.121 219.547 181.772 220.77C183.414 221.983 184.66 223.708 185.51 225.927C186.36 228.136 186.785 230.867 186.785 233.796C186.785 236.724 186.37 239.278 185.549 241.517L185.569 241.527Z" fill="#283845"/>
<path d="M142.341 227.939C140.175 226.716 137.812 225.73 135.261 224.971C132.71 224.211 130.169 223.57 127.648 223.048C124.889 222.407 122.358 221.756 120.035 221.085C117.721 220.415 115.852 219.527 114.448 218.423C113.044 217.319 112.332 215.83 112.332 213.966C112.332 212.457 112.797 211.126 113.736 209.992C114.676 208.858 116.04 207.971 117.83 207.33C119.619 206.689 121.715 206.363 124.118 206.363C126.175 206.363 128.004 206.6 129.616 207.064C131.227 207.527 132.621 208.247 133.798 209.203C134.975 210.16 135.865 211.353 136.478 212.783C137.091 214.213 137.397 215.889 137.397 217.802L147.512 215.011C147.393 211.461 146.365 208.375 144.437 205.752C142.509 203.129 139.8 201.137 136.349 199.767C132.888 198.396 128.904 197.716 124.207 197.716C119.511 197.716 115.486 198.426 112.115 199.855C108.743 201.285 106.182 203.267 104.422 205.792C102.662 208.326 101.782 211.333 101.782 214.834C101.782 217.92 102.445 220.464 103.76 222.476C105.075 224.487 106.855 226.134 109.079 227.406C111.304 228.688 113.786 229.704 116.515 230.463C119.244 231.222 122.042 231.922 124.919 232.563C127.559 233.145 129.922 233.776 131.999 234.447C134.075 235.117 135.736 235.965 136.972 236.981C138.208 237.996 138.821 239.357 138.821 241.043C138.821 242.562 138.327 243.913 137.328 245.106C136.329 246.299 134.846 247.246 132.888 247.946C130.921 248.646 128.617 248.991 125.631 248.991C122.645 248.991 119.985 248.557 117.671 247.68C115.358 246.802 113.578 245.451 112.352 243.617C111.126 241.783 110.533 239.466 110.592 236.675L100.744 239.554C100.803 242.582 101.387 245.214 102.504 247.463C103.621 249.701 105.213 251.594 107.299 253.142C109.376 254.681 111.917 255.824 114.913 256.544C117.899 257.274 121.3 257.639 125.117 257.639C130.515 257.639 135.024 256.939 138.663 255.539C142.301 254.138 145.02 252.166 146.84 249.602C148.659 247.039 149.569 244.071 149.569 240.688C149.569 237.543 148.906 234.94 147.591 232.869C146.276 230.798 144.526 229.161 142.361 227.939H142.341Z" fill="#283845"/>
<path d="M87.0004 212.398C83.5397 210.594 79.3771 209.687 75.0365 209.687C70.6958 209.687 66.8001 210.564 63.3395 212.309C59.8789 214.055 57.14 216.688 55.1131 220.218C53.0861 223.738 52.0776 228.294 52.0776 233.539C52.0776 238.785 53.0565 243.193 55.0241 246.772C56.9917 250.352 59.7009 253.063 63.1615 254.898C66.6222 256.732 70.6068 257.649 75.1255 257.649C79.5254 257.649 83.4705 256.791 86.9608 255.075C90.4511 253.359 93.19 250.727 95.1872 247.167C97.1746 243.617 98.1733 239.101 98.1733 233.806C98.1733 228.51 97.1746 224.063 95.1872 220.484C93.19 216.905 90.461 214.213 87.0103 212.408L87.0004 212.398ZM85.7249 242.444C84.8152 244.712 83.5101 246.417 81.8094 247.551C80.1088 248.685 78.0225 249.257 75.5605 249.257C71.7439 249.257 68.748 247.887 66.5431 245.155C64.348 242.424 63.2406 238.489 63.2406 233.362C63.2406 230.098 63.6955 227.367 64.6051 225.148C65.5148 222.939 66.8496 221.263 68.6096 220.129C70.3695 218.995 72.4163 218.423 74.7695 218.423C77.4688 218.423 79.7133 219.064 81.5029 220.346C83.2925 221.628 84.6669 223.442 85.6359 225.809C86.6049 228.165 87.0894 231.005 87.0894 234.328C87.0894 237.474 86.6345 240.186 85.7249 242.453V242.444Z" fill="#283845"/>
<path d="M39.1447 236.685L49.5266 239.397C49.4673 242.246 48.8839 244.79 47.7666 247.039C46.6494 249.277 45.1069 251.2 43.1492 252.807C41.1816 254.405 38.8481 255.617 36.1488 256.436C33.4495 257.244 30.5228 257.659 27.3489 257.659C23.2456 257.659 19.518 256.988 16.176 255.647C12.834 254.306 9.95674 252.314 7.55407 249.662C5.1514 247.009 3.29255 243.794 1.96762 240.008C0.711902 236.409 0.0593252 232.149 0 227.692C0.0593252 223.225 0.711902 218.975 1.96762 215.376C3.29255 211.59 5.1514 208.375 7.55407 205.723C9.95674 203.07 12.834 201.078 16.176 199.737C19.518 198.396 23.2357 197.726 27.3489 197.726C30.5129 197.726 33.4495 198.14 36.1488 198.948C38.8481 199.767 41.1816 200.97 43.1492 202.577C45.1168 204.174 46.6494 206.097 47.7666 208.345C48.8839 210.584 49.4673 213.138 49.5266 215.987L39.1447 218.699C39.2041 216.076 38.6503 213.897 37.4737 212.152C36.2971 210.406 34.7942 209.095 32.9452 208.217C31.0963 207.34 29.1188 206.906 27.0127 206.906C25.1341 206.906 23.2752 207.281 21.4263 208.04C19.5773 208.799 17.9261 209.992 16.4528 211.619C14.9895 213.246 13.8129 215.386 12.9329 218.038C12.0628 220.671 11.6178 223.886 11.608 227.692C11.608 231.498 12.0529 234.713 12.9329 237.346C13.8129 239.998 14.9796 242.138 16.4528 243.765C17.9162 245.402 19.5773 246.585 21.4263 247.344C23.2752 248.104 25.1341 248.478 27.0127 248.478C29.1188 248.478 31.1062 248.044 32.9452 247.167C34.7942 246.289 36.2971 244.978 37.4737 243.232C38.6503 241.487 39.2041 239.308 39.1447 236.685Z" fill="#283845"/>
<path d="M257.817 99.0501L255.177 101.683C241.819 88.3612 224.328 81.7151 206.827 81.7151C189.326 81.7151 171.845 88.3711 158.487 101.683C149.697 110.439 145.327 121.897 145.317 133.385C145.327 144.863 149.707 156.331 158.487 165.097L155.857 167.73C147.067 158.963 135.578 154.595 124.059 154.595C112.54 154.595 101.041 158.963 92.2605 167.73L89.6205 165.097C98.4105 156.331 102.791 144.873 102.791 133.385C102.791 121.897 98.4105 110.439 89.6304 101.683C85.4183 97.4823 79.911 95.3918 74.3937 95.3918C68.8765 95.3918 63.3593 97.4823 59.1571 101.683L56.5171 99.0501C60.7292 94.8495 62.8253 89.3571 62.8253 83.8549C62.8253 78.3527 60.7292 72.8603 56.5171 68.6695L59.1571 66.0367C63.3691 70.2374 68.8765 72.3278 74.3937 72.3278C79.911 72.3278 85.4183 70.2374 89.6205 66.0367L92.2605 68.6695C88.0484 72.8603 85.9523 78.3428 85.9523 83.8549C85.9523 89.367 88.0484 94.8495 92.2605 99.0501C101.041 107.816 112.54 112.185 124.059 112.185C135.578 112.185 147.057 107.816 155.847 99.06C169.205 85.7284 175.869 68.2849 175.869 50.8316C175.869 33.3783 169.205 15.9447 155.857 2.63279L158.487 0C171.855 13.3217 189.336 19.9678 206.827 19.9678C224.318 19.9678 241.809 13.3119 255.167 0L256.482 1.31147L257.788 2.62293C244.449 15.9348 237.775 33.3684 237.775 50.8218C237.775 68.2751 244.449 85.7284 257.807 99.0403L257.817 99.0501Z" fill="#283845"/>
</svg>
