<svg width="352" height="67" viewBox="0 0 352 67" fill="none" xmlns="http://www.w3.org/2000/svg">
<path d="M256.585 34.6834V33.1595C266.716 33.1595 276.445 25.1825 276.445 13.3404H266.058C266.058 13.3404 263.769 30.6906 251.161 30.6906V0.876922H241.73V54.5024H251.161V38.1398C263.777 38.1398 265.904 54.5024 265.904 54.5024H276.471C276.471 43.069 266.946 34.6834 256.585 34.6834Z" fill="#283845"/>
<path d="M235.281 14.1492C232.744 14.1492 230.199 15.3496 228.729 16.5159C225.842 18.806 223.638 22.2369 222.408 25.208H221.417L221.529 15.0601H213.473V54.5024H223.049V36.1051C223.502 33.5937 224.177 31.4143 225.065 29.5839C225.953 27.745 227.115 26.3318 228.559 25.3272C230.002 24.3227 231.711 23.8204 233.692 23.8204C234.401 23.8204 235.17 23.8885 236.007 24.0077C236.844 24.1354 237.664 24.3482 238.476 24.6462L238.86 14.6174C238.151 14.4131 237.502 14.2939 236.921 14.2429C236.34 14.1918 235.794 14.1662 235.29 14.1662L235.281 14.1492ZM221.375 28.6219V28.6049C221.375 28.6049 221.375 28.6134 221.375 28.6219Z" fill="#283845"/>
<path d="M209.143 43.6735C209.066 41.8346 209.032 40.0638 209.032 38.3526V30.963C209.032 27.0384 208.451 23.8374 207.28 21.3515C206.11 18.8656 204.342 17.0267 201.959 15.8434C199.576 14.66 196.535 14.0726 192.836 14.0726C190.401 14.0726 188.172 14.328 186.148 14.8303C184.123 15.3326 182.321 16.1158 180.749 17.1714C179.177 18.2271 177.862 19.4956 176.794 20.9769C175.726 22.4582 174.923 24.2035 174.36 26.2211L182.944 28.8603C183.294 27.098 183.952 25.6848 184.917 24.6036C185.883 23.5224 187.036 22.7307 188.377 22.2284C189.718 21.7261 191.128 21.4707 192.597 21.4707C195.031 21.4707 196.791 22.0326 197.876 23.1648C198.961 24.2971 199.507 25.6422 199.507 27.2002C199.507 28.2558 199.251 29.0475 198.747 29.5754C198.243 30.1032 197.44 30.4948 196.355 30.7417C195.262 30.9971 193.861 31.244 192.135 31.4994C188.992 31.9506 186.259 32.4954 183.927 33.1169C181.595 33.7469 179.647 34.5216 178.075 35.4581C176.504 36.386 175.325 37.5864 174.539 39.0422C173.753 40.498 173.36 42.2602 173.36 44.3205C173.36 46.7893 173.856 48.8496 174.838 50.5012C175.829 52.1613 177.178 53.4042 178.904 54.2385C180.629 55.0728 182.628 55.4815 184.755 55.4815C193.212 55.4815 197.577 50.9268 199.422 48.0323H200.601C200.66 48.6708 200.729 49.3689 200.789 49.9733C200.942 51.5823 201.113 53.0892 201.318 54.4939H209.903C209.698 52.7827 209.536 51.012 209.407 49.1731C209.279 47.3427 209.177 45.5038 209.1 43.6649L209.143 43.6735ZM197.551 43.7501C196.688 44.7802 195.749 45.6485 194.741 46.3552C193.724 47.0618 192.699 47.5896 191.666 47.9386C190.632 48.2877 189.599 48.4665 188.591 48.4665C186.865 48.4665 185.447 47.9897 184.337 47.0362C183.226 46.0827 182.662 44.7461 182.662 43.0435C182.662 41.6898 182.987 40.6172 183.653 39.8425C184.311 39.0592 185.199 38.4633 186.31 38.0291C187.42 37.6034 188.676 37.2544 190.068 36.9735C191.461 36.701 192.853 36.4627 194.245 36.2583C195.638 36.054 196.97 35.7561 198.234 35.3559C198.738 35.1942 199.2 35.0069 199.635 34.8026L199.755 40.1064C199.148 41.5111 198.414 42.737 197.551 43.7671V43.7501Z" fill="#283845"/>
<path d="M163.81 16.6692C161.324 14.941 158.309 14.0726 154.764 14.0726C146.308 14.0726 142.968 18.7805 141.558 22.3816H140.345L140.405 15.0516H132.35V67H141.926V48.0153H143.19C144.966 51.4206 148.708 55.4644 155.302 55.4644C158.847 55.4644 161.811 54.5705 164.22 52.7827C166.629 50.9949 168.431 48.5601 169.619 45.4698C170.806 42.3794 171.404 38.8634 171.404 34.9473C171.404 30.7758 170.755 27.115 169.456 23.9736C168.175 20.8322 166.279 18.3889 163.802 16.6606L163.81 16.6692ZM160.316 41.5536C159.599 43.4947 158.565 44.993 157.19 46.0742C155.823 47.1554 154.149 47.7003 152.176 47.7003C150.86 47.7003 149.639 47.4449 148.528 46.9341C147.427 46.4403 146.453 45.7507 145.641 44.8653C144.838 43.9885 144.155 43.0094 143.591 41.9282C143.036 40.847 142.609 39.7658 142.327 38.6846C142.045 37.6035 141.917 36.5648 141.917 35.5603V34.2747C141.917 32.9126 142.122 31.5334 142.523 30.1287C142.925 28.7155 143.557 27.396 144.411 26.1615C145.283 24.9356 146.342 23.9395 147.606 23.1819C148.879 22.4327 150.348 22.0496 152.022 22.0496C153.944 22.0496 155.61 22.5774 157.036 23.6331C158.454 24.6802 159.531 26.17 160.265 28.0855C161 29.9925 161.367 32.3507 161.367 34.8792C161.367 37.4076 161.008 39.6126 160.299 41.5451L160.316 41.5536Z" fill="#283845"/>
<path d="M122.971 29.8308C121.1 28.7751 119.059 27.9238 116.855 27.2683C114.651 26.6127 112.456 26.0594 110.277 25.6082C107.894 25.0548 105.707 24.4929 103.7 23.914C101.701 23.3351 100.087 22.5689 98.8738 21.6154C97.6608 20.6619 97.0458 19.3764 97.0458 17.7674C97.0458 16.4648 97.4473 15.3155 98.2588 14.3365C99.0703 13.3575 100.249 12.5913 101.795 12.0379C103.341 11.4845 105.152 11.2036 107.228 11.2036C109.005 11.2036 110.585 11.4079 111.977 11.808C113.37 12.2082 114.574 12.8296 115.591 13.6554C116.607 14.4812 117.376 15.5113 117.905 16.7458C118.435 17.9802 118.7 19.4275 118.7 21.0791L127.438 18.6698C127.336 15.605 126.447 12.9403 124.782 10.6758C123.116 8.41123 120.776 6.69153 117.794 5.50818C114.805 4.32482 111.362 3.7374 107.305 3.7374C103.247 3.7374 99.7707 4.35036 96.8579 5.5848C93.945 6.81923 91.7327 8.53041 90.2122 10.7098C88.6917 12.8978 87.9315 15.4943 87.9315 18.5166C87.9315 21.1812 88.5038 23.3777 89.6399 25.1144C90.776 26.8511 92.3135 28.2728 94.2355 29.3711C96.1574 30.4778 98.3015 31.3547 100.659 32.0102C103.017 32.6657 105.434 33.2702 107.92 33.8235C110.2 34.3258 112.242 34.8707 114.036 35.4496C115.83 36.0285 117.265 36.7606 118.332 37.6375C119.4 38.5144 119.93 39.6892 119.93 41.145C119.93 42.4561 119.503 43.6224 118.64 44.6525C117.777 45.6826 116.496 46.4999 114.805 47.1043C113.105 47.7088 111.114 48.0068 108.535 48.0068C105.955 48.0068 103.657 47.6322 101.658 46.8745C99.6597 46.1168 98.1221 44.9505 97.0629 43.367C96.0037 41.7835 95.4912 39.7829 95.5424 37.3736L87.0346 39.8595C87.0858 42.4731 87.5898 44.7461 88.555 46.6872C89.5203 48.6197 90.8956 50.2543 92.6979 51.5909C94.4917 52.919 96.687 53.9065 99.2753 54.528C101.855 55.158 104.793 55.473 108.091 55.473C112.755 55.473 116.65 54.8685 119.793 53.6596C122.937 52.4507 125.286 50.7481 126.857 48.5346C128.429 46.3211 129.215 43.7586 129.215 40.8385C129.215 38.1228 128.643 35.8753 127.507 34.0874C126.371 32.2996 124.859 30.8864 122.988 29.8308H122.971Z" fill="#283845"/>
<path d="M75.1612 16.4138C72.1715 14.8558 68.5753 14.0726 64.8253 14.0726C61.0754 14.0726 57.7098 14.8303 54.7201 16.3371C51.7304 17.844 49.3643 20.1171 47.6132 23.1648C45.8621 26.2041 44.9908 30.1373 44.9908 34.6663C44.9908 39.1954 45.8365 43.0009 47.5363 46.0912C49.2362 49.1816 51.5767 51.5227 54.5664 53.1062C57.5561 54.6897 60.9985 55.4815 64.9022 55.4815C68.7034 55.4815 72.1117 54.7408 75.127 53.2595C78.1423 51.7782 80.5085 49.5051 82.234 46.4318C83.9509 43.367 84.8136 39.4679 84.8136 34.8962C84.8136 30.3245 83.9509 26.485 82.234 23.3947C80.5085 20.3044 78.1509 17.9802 75.1697 16.4223L75.1612 16.4138ZM74.0593 42.3539C73.2734 44.312 72.1459 45.7848 70.6766 46.7638C69.2074 47.7428 67.405 48.2366 65.2781 48.2366C61.9809 48.2366 59.3926 47.0533 57.4878 44.6951C55.5914 42.3369 54.6347 38.94 54.6347 34.5131C54.6347 31.6952 55.0277 29.337 55.8135 27.4215C56.5994 25.5145 57.7526 24.0672 59.273 23.0882C60.7935 22.1092 62.5617 21.6154 64.5947 21.6154C66.9267 21.6154 68.8657 22.1688 70.4118 23.2755C71.9579 24.3822 73.1453 25.9487 73.9824 27.9919C74.8195 30.0266 75.2381 32.4784 75.2381 35.3474C75.2381 38.0632 74.8451 40.4043 74.0593 42.3624V42.3539Z" fill="#283845"/>
<path d="M33.8178 37.3821L42.7869 39.7233C42.7357 42.1836 42.2317 44.3801 41.2665 46.3211C40.3012 48.2536 38.9687 49.9137 37.2773 51.3014C35.5775 52.6806 33.5616 53.7277 31.2296 54.4343C28.8976 55.1324 26.3692 55.49 23.6272 55.49C20.0823 55.49 16.8619 54.9111 13.9747 53.7533C11.0875 52.5954 8.60181 50.8757 6.5261 48.5857C4.45039 46.2956 2.84449 43.5202 1.69986 40.2511C0.615025 37.1437 0.0512521 33.466 0 29.6179C0.0512521 25.7614 0.615025 22.0922 1.69986 18.9848C2.84449 15.7157 4.45039 12.9403 6.5261 10.6502C8.60181 8.36015 11.0875 6.64045 13.9747 5.48264C16.8619 4.32482 20.0737 3.74592 23.6272 3.74592C26.3606 3.74592 28.8976 4.10348 31.2296 4.80157C33.5616 5.50818 35.5775 6.5468 37.2773 7.93448C38.9772 9.31364 40.3012 10.9737 41.2665 12.9148C42.2317 14.8473 42.7357 17.0523 42.7869 19.5126L33.8178 21.8538C33.8691 19.5892 33.3907 17.7078 32.3742 16.2009C31.3577 14.6941 30.0593 13.5618 28.462 12.8041C26.8646 12.0464 25.1562 11.6718 23.3368 11.6718C21.7138 11.6718 20.1079 11.9953 18.5105 12.6509C16.9132 13.3064 15.4867 14.3365 14.2139 15.7412C12.9497 17.1459 11.9332 18.9933 11.1729 21.2834C10.4213 23.5564 10.0369 26.3318 10.0283 29.6179C10.0283 32.9041 10.4127 35.6794 11.1729 37.9525C11.9332 40.2426 12.9411 42.09 14.2139 43.4947C15.4781 44.9079 16.9132 45.9295 18.5105 46.585C20.1079 47.2406 21.7138 47.5641 23.3368 47.5641C25.1562 47.5641 26.8732 47.1895 28.462 46.4318C30.0593 45.6741 31.3577 44.5418 32.3742 43.035C33.3907 41.5281 33.8691 39.6467 33.8178 37.3821Z" fill="#283845"/>
<path d="M351.008 32.6997L350.137 33.5681C345.729 29.1752 339.946 26.9788 334.172 26.9788C328.398 26.9788 322.615 29.1752 318.207 33.5681C315.303 36.4541 313.859 40.2425 313.859 44.031C313.859 47.8194 315.311 51.5993 318.207 54.4939L317.336 55.3622C314.431 52.4677 310.639 51.0289 306.838 51.0289C303.036 51.0289 299.235 52.4762 296.339 55.3622L295.468 54.4939C298.372 51.5993 299.816 47.8194 299.816 44.031C299.816 40.2425 298.372 36.4626 295.468 33.5681C294.076 32.1804 292.256 31.4908 290.437 31.4908C288.617 31.4908 286.789 32.1804 285.406 33.5681L284.534 32.6997C285.927 31.312 286.619 29.4987 286.619 27.6854C286.619 25.872 285.927 24.0587 284.534 22.671L285.406 21.8027C286.798 23.1903 288.617 23.8799 290.437 23.8799C292.256 23.8799 294.076 23.1903 295.468 21.8027L296.339 22.671C294.947 24.0587 294.255 25.8635 294.255 27.6854C294.255 29.5072 294.947 31.312 296.339 32.6997C299.235 35.5943 303.036 37.033 306.838 37.033C310.639 37.033 314.431 35.5943 317.336 32.6997C321.743 28.2983 323.947 22.5433 323.947 16.7798C323.947 11.0163 321.743 5.26124 317.336 0.86836L318.207 0C322.623 4.39288 328.398 6.58932 334.172 6.58932C339.946 6.58932 345.729 4.39288 350.137 0L350.573 0.43418L351.008 0.86836C346.601 5.26124 344.397 11.0163 344.397 16.7798C344.397 22.5433 346.601 28.2983 351.017 32.6912L351.008 32.6997Z" fill="#283845"/>
</svg>
