<svg width="365" height="88" viewBox="0 0 365 88" fill="none" xmlns="http://www.w3.org/2000/svg">
<path d="M338.747 44.6317V42.6198C352.121 42.6198 364.966 32.0885 364.966 16.4545H351.253C351.253 16.4545 348.231 39.3604 331.585 39.3604V0H319.135V70.797H331.585V49.1949C348.242 49.1949 351.05 70.797 351.05 70.797H365C365 55.7025 352.426 44.6317 338.747 44.6317Z" fill="black"/>
<path d="M310.621 17.5222C307.272 17.5222 303.911 19.107 301.971 20.6468C298.16 23.6702 295.25 28.1997 293.626 32.1222H292.318L292.465 18.7249H281.83V70.797H294.472V46.5087C295.07 43.193 295.961 40.3158 297.133 37.8993C298.306 35.4716 299.84 33.6058 301.746 32.2796C303.652 30.9533 305.907 30.2902 308.523 30.2902C309.459 30.2902 310.474 30.3801 311.58 30.5375C312.685 30.7061 313.767 30.987 314.839 31.3804L315.346 18.1404C314.41 17.8707 313.553 17.7133 312.786 17.6459C312.019 17.5784 311.298 17.5447 310.632 17.5447L310.621 17.5222ZM292.262 36.6292V36.6067C292.262 36.6067 292.262 36.618 292.262 36.6292Z" fill="black"/>
<path d="M276.113 56.5005C276.011 54.0728 275.966 51.735 275.966 49.4759V39.7201C275.966 34.5387 275.199 30.3127 273.654 27.0308C272.109 23.7489 269.775 21.3212 266.628 19.7589C263.482 18.1966 259.467 17.4211 254.584 17.4211C251.37 17.4211 248.427 17.7583 245.754 18.4214C243.081 19.0845 240.702 20.1185 238.627 21.5122C236.552 22.9059 234.815 24.5806 233.406 26.5362C231.996 28.4919 230.936 30.796 230.192 33.4597L241.525 36.9439C241.988 34.6174 242.856 32.7516 244.13 31.3242C245.405 29.8968 246.927 28.8516 248.698 28.1884C250.468 27.5253 252.329 27.1881 254.268 27.1881C257.483 27.1881 259.806 27.9299 261.238 29.4248C262.67 30.9196 263.392 32.6954 263.392 34.7522C263.392 36.1459 263.053 37.1912 262.388 37.888C261.723 38.5849 260.663 39.1019 259.23 39.4278C257.787 39.765 255.938 40.091 253.66 40.4281C249.509 41.0238 245.901 41.7431 242.822 42.5636C239.743 43.3953 237.172 44.4181 235.097 45.6545C233.022 46.8796 231.466 48.4643 230.428 50.3863C229.391 52.3082 228.872 54.6347 228.872 57.3547C228.872 60.6141 229.526 63.334 230.823 65.5145C232.131 67.7062 233.913 69.3471 236.191 70.4486C238.469 71.55 241.108 72.0895 243.916 72.0895C255.08 72.0895 260.843 66.0765 263.279 62.2551H264.835C264.914 63.098 265.004 64.0196 265.083 64.8176C265.286 66.9419 265.512 68.9313 265.783 70.7858H277.116C276.846 68.5267 276.631 66.1889 276.462 63.7611C276.293 61.3447 276.158 58.917 276.056 56.4892L276.113 56.5005ZM260.809 56.6016C259.67 57.9616 258.43 59.108 257.099 60.0409C255.757 60.9738 254.404 61.6706 253.039 62.1314C251.675 62.5922 250.31 62.8283 248.979 62.8283C246.701 62.8283 244.829 62.1989 243.363 60.9401C241.897 59.6812 241.153 57.9167 241.153 55.6688C241.153 53.8817 241.582 52.4655 242.461 51.4428C243.33 50.4087 244.502 49.622 245.968 49.0488C247.434 48.4868 249.092 48.026 250.93 47.6551C252.769 47.2954 254.607 46.9807 256.445 46.711C258.283 46.4412 260.042 46.0478 261.711 45.5196C262.377 45.306 262.986 45.0588 263.561 44.789L263.719 51.7912C262.918 53.6457 261.948 55.2642 260.809 56.6241V56.6016Z" fill="black"/>
<path d="M216.264 20.8491C212.982 18.5675 209.002 17.4211 204.321 17.4211C193.157 17.4211 188.748 23.6365 186.887 28.3907H185.285L185.364 18.7136H174.73V87.2965H187.372V62.2326H189.041C191.386 66.7284 196.326 72.0671 205.032 72.0671C209.712 72.0671 213.625 70.8869 216.805 68.5267C219.986 66.1664 222.365 62.9519 223.933 58.872C225.5 54.7921 226.29 50.1502 226.29 44.9801C226.29 39.4728 225.433 34.6398 223.718 30.4925C222.027 26.3452 219.523 23.1195 216.253 20.8379L216.264 20.8491ZM211.652 53.7019C210.704 56.2645 209.34 58.2426 207.524 59.67C205.72 61.0974 203.509 61.8167 200.904 61.8167C199.168 61.8167 197.555 61.4795 196.089 60.8052C194.634 60.1533 193.349 59.2429 192.277 58.074C191.217 56.9164 190.315 55.6238 189.571 54.1964C188.838 52.769 188.274 51.3416 187.902 49.9142C187.53 48.4868 187.36 47.1156 187.36 45.7893V44.0922C187.36 42.2939 187.631 40.4731 188.161 38.6186C188.691 36.7529 189.526 35.0107 190.653 33.381C191.804 31.7626 193.202 30.4475 194.871 29.4472C196.551 28.4582 198.491 27.9524 200.701 27.9524C203.239 27.9524 205.438 28.6492 207.321 30.0429C209.193 31.4254 210.614 33.3923 211.584 35.9211C212.554 38.4388 213.039 41.5521 213.039 44.8902C213.039 48.2283 212.565 51.1393 211.629 53.6906L211.652 53.7019Z" fill="black"/>
<path d="M162.348 38.2252C159.878 36.8315 157.183 35.7076 154.273 34.8422C151.363 33.9767 148.465 33.2462 145.59 32.6505C142.443 31.9199 139.556 31.1781 136.906 30.4138C134.267 29.6496 132.136 28.638 130.534 27.3792C128.933 26.1204 128.121 24.4232 128.121 22.299C128.121 20.5794 128.651 19.062 129.722 17.7695C130.794 16.477 132.35 15.4654 134.391 14.7349C136.432 14.0043 138.823 13.6334 141.564 13.6334C143.909 13.6334 145.995 13.9031 147.834 14.4314C149.672 14.9597 151.262 15.7801 152.604 16.8704C153.946 17.9606 154.961 19.3205 155.66 20.9503C156.359 22.58 156.709 24.4907 156.709 26.6711L168.246 23.4904C168.11 19.4442 166.937 15.9262 164.738 12.9366C162.539 9.94688 159.449 7.67652 155.513 6.11424C151.566 4.55196 147.022 3.77644 141.665 3.77644C136.308 3.77644 131.718 4.58568 127.873 6.21539C124.027 7.84511 121.107 10.1042 119.099 12.9815C117.092 15.87 116.088 19.2981 116.088 23.2881C116.088 26.806 116.844 29.7058 118.344 31.9986C119.844 34.2914 121.873 36.1684 124.411 37.6183C126.948 39.0794 129.779 40.2371 132.891 41.1025C136.004 41.9679 139.195 42.7659 142.477 43.4965C145.488 44.1596 148.183 44.879 150.551 45.6432C152.92 46.4075 154.814 47.3741 156.224 48.5318C157.634 49.6894 158.333 51.2405 158.333 53.1624C158.333 54.8933 157.769 56.4331 156.63 57.793C155.491 59.153 153.799 60.232 151.566 61.03C149.322 61.828 146.695 62.2214 143.289 62.2214C139.883 62.2214 136.85 61.7268 134.211 60.7265C131.572 59.7262 129.542 58.1864 128.144 56.0959C126.745 54.0054 126.069 51.3641 126.136 48.1833L114.904 51.4652C114.972 54.9157 115.637 57.9167 116.911 60.4793C118.186 63.0306 120.001 65.1886 122.381 66.9531C124.749 68.7065 127.647 70.0103 131.064 70.8307C134.47 71.6625 138.349 72.0783 142.703 72.0783C148.86 72.0783 154.002 71.2803 158.152 69.6843C162.302 68.0883 165.404 65.8404 167.479 62.9182C169.554 59.996 170.591 56.6129 170.591 52.7578C170.591 49.1724 169.836 46.2052 168.336 43.8449C166.836 41.4846 164.84 39.6189 162.37 38.2252H162.348Z" fill="black"/>
<path d="M99.2287 20.5119C95.2816 18.4551 90.5339 17.4211 85.5832 17.4211C80.6325 17.4211 76.1892 18.4214 72.2422 20.4108C68.2951 22.4001 65.1713 25.4011 62.8595 29.4248C60.5477 33.4372 59.3974 38.6298 59.3974 44.6092C59.3974 50.5886 60.5138 55.6126 62.758 59.6925C65.0022 63.7724 68.0922 66.8632 72.0392 68.9537C75.9862 71.0443 80.531 72.0895 85.6847 72.0895C90.7031 72.0895 95.2027 71.1117 99.1836 69.1561C103.164 67.2004 106.288 64.1995 108.566 60.1421C110.833 56.0959 111.972 50.9482 111.972 44.9127C111.972 38.8771 110.833 33.8081 108.566 29.7282C106.288 25.6483 103.176 22.58 99.2399 20.5232L99.2287 20.5119ZM97.7739 54.7584C96.7364 57.3434 95.2478 59.2879 93.3081 60.5804C91.3684 61.8729 88.9889 62.5248 86.1809 62.5248C81.8279 62.5248 78.4108 60.9625 75.896 57.8492C73.3925 54.7359 72.1294 50.2514 72.1294 44.4069C72.1294 40.6866 72.6482 37.5733 73.6857 35.0445C74.7232 32.5268 76.2456 30.6161 78.253 29.3236C80.2603 28.0311 82.5947 27.3792 85.2787 27.3792C88.3574 27.3792 90.9173 28.1098 92.9585 29.5709C94.9997 31.032 96.5672 33.1 97.6724 35.7975C98.7776 38.4837 99.3302 41.7207 99.3302 45.5083C99.3302 49.0937 98.8114 52.1846 97.7739 54.7696V54.7584Z" fill="black"/>
<path d="M44.6467 48.1946L56.4878 51.2854C56.4202 54.5336 55.7548 57.4334 54.4805 59.996C53.2061 62.5473 51.4469 64.739 49.214 66.571C46.9698 68.3918 44.3084 69.7742 41.2297 70.7071C38.151 71.6287 34.8129 72.1008 31.1929 72.1008C26.5128 72.1008 22.2613 71.3365 18.4496 69.808C14.6379 68.2794 11.3562 66.009 8.61583 62.9856C5.87545 59.9622 3.75533 56.2982 2.24418 51.9823C0.811963 47.8799 0.0676636 43.0244 0 37.9442C0.0676636 32.8528 0.811963 28.0086 2.24418 23.9062C3.75533 19.5903 5.87545 15.9262 8.61583 12.9028C11.3562 9.87944 14.6379 7.60908 18.4496 6.08052C22.2613 4.55196 26.5016 3.78768 31.1929 3.78768C34.8016 3.78768 38.151 4.25974 41.2297 5.18137C44.3084 6.11424 46.9698 7.48545 49.214 9.31747C51.4582 11.1383 53.2061 13.3299 54.4805 15.8925C55.7548 18.4439 56.4202 21.3549 56.4878 24.6031L44.6467 27.6939C44.7144 24.7042 44.0828 22.2203 42.7408 20.2309C41.3988 18.2416 39.6847 16.7467 37.5758 15.7464C35.467 14.7461 33.2115 14.2516 30.8095 14.2516C28.6668 14.2516 26.5467 14.6787 24.4378 15.5441C22.329 16.4095 20.4457 17.7695 18.7654 19.624C17.0963 21.4785 15.7543 23.9175 14.7507 26.9409C13.7583 29.9418 13.2508 33.6058 13.2395 37.9442C13.2395 42.2826 13.747 45.9467 14.7507 48.9476C15.7543 51.971 17.0851 54.41 18.7654 56.2645C20.4344 58.1302 22.329 59.4789 24.4378 60.3444C26.5467 61.2098 28.6668 61.6369 30.8095 61.6369C33.2115 61.6369 35.4783 61.1424 37.5758 60.1421C39.6847 59.1418 41.3988 57.6469 42.7408 55.6575C44.0828 53.6682 44.7144 51.1843 44.6467 48.1946Z" fill="black"/>
</svg>
