<?xml version="1.0" encoding="UTF-8"?>
<svg id="Layer_2" data-name="Layer 2" xmlns="http://www.w3.org/2000/svg" xmlns:xlink="http://www.w3.org/1999/xlink" viewBox="0 0 340.09 69.74">
  <defs>
    <style>
      .cls-1, .cls-2 {
        fill-rule: evenodd;
      }

      .cls-2 {
        fill: url(#linear-gradient);
      }
    </style>
    <linearGradient id="linear-gradient" x1="1.75" y1="57.46" x2="41.5" y2="17.7" gradientUnits="userSpaceOnUse">
      <stop offset="0" stop-color="#000"/>
      <stop offset="1" stop-color="#000" stop-opacity=".3"/>
    </linearGradient>
  </defs>
  <g id="Layer_1-2" data-name="Layer 1">
    <g id="logo">
      <g id="wordmark">
        <path id="n" d="M335.39,53.34c-2.59,0-4.7-2.1-4.7-4.7v-16.75c0-4.73-1.77-7.36-6.77-7.36-5.32,0-8.15,3.09-8.15,9v15.11c0,2.59-2.1,4.7-4.7,4.7s-4.7-2.1-4.7-4.7v-31.52c0-.41.33-.73.73-.73h3.73c2.72,0,4.93,2.21,4.93,4.93h0c2.63-3.68,6.24-5.71,11.23-5.71,8.15,0,13.07,5.39,13.07,14.25v18.79c0,2.59-2.1,4.7-4.7,4.7Z"/>
        <path id="i" d="M294.79,15.37c2.59,0,4.7,2.1,4.7,4.7v28.59c0,2.59-2.1,4.7-4.7,4.7s-4.7-2.1-4.7-4.7v-28.59c0-2.59,2.1-4.7,4.7-4.7ZM298.63,1.59h0c-2.12-2.12-5.56-2.12-7.68,0h0c-2.12,2.12-2.12,5.56,0,7.68h0c2.12,2.12,5.56,2.12,7.68,0h0c2.12-2.12,2.12-5.56,0-7.68Z"/>
        <path id="g" d="M282.52,16.4h-3.67c-1.38,0-2.63.56-3.53,1.46-.9.9-1.46,2.15-1.46,3.53-2.5-3.42-6.37-5.78-11.36-5.78-9.33,0-16.49,7.68-16.49,18.59s7.03,18.59,16.49,18.59c5.05,0,8.8-2.24,11.36-5.65v5.19c0,6.11-3.02,9.06-8.74,9.06-3.74,0-7.05-1.34-8.22-5.09-.08-.25-.29-.42-.55-.42h-8.59c-.37,0-.65.33-.59.69,1.68,8.98,9.7,13.17,18.22,13.17,10.9,0,17.86-6.97,17.86-17.67V17.13c0-.41-.32-.73-.73-.73ZM264.6,43.85c-5.19,0-9.13-4-9.13-9.65s3.87-9.66,9.13-9.66,9.26,4.01,9.26,9.66-4.01,9.65-9.26,9.65Z"/>
        <path id="r" d="M226.07,53.34c-2.59,0-4.7-2.1-4.7-4.7v-31.52c0-.41.33-.73.73-.73h2.35c3.48,0,6.31,2.82,6.31,6.31h0c2.23-4.73,6.17-7.09,11.3-7.09.61,0,1.11.03,1.57.07.3.03.53.28.53.59v8.48c0,.35-.3.62-.64.58-.46-.04-.93-.07-1.66-.07-5.98,0-11.1,2.63-11.1,11.17v12.22c0,2.59-2.1,4.7-4.7,4.7Z"/>
        <path id="a" d="M213.79,16.4h-3.6c-1.4,0-2.66.57-3.57,1.48-.91.91-1.48,2.17-1.48,3.57-2.5-3.48-6.31-5.84-11.43-5.84-9.27,0-16.43,7.68-16.43,18.85s7.03,18.85,16.49,18.85c5.06,0,8.8-2.23,11.37-5.65v.92s-.01.06-.01.06c0,2.57,2.09,4.67,4.67,4.67s4.67-2.08,4.67-4.66l.06-31.52c0-.4-.33-.73-.74-.73ZM195.87,44.38c-5.19,0-9.13-3.94-9.13-9.92s3.88-9.92,9.13-9.92,9.27,4.01,9.27,9.92-4.01,9.92-9.27,9.92Z"/>
        <path id="m" d="M166.93,52.52c-2.59,0-4.7-2.1-4.7-4.7v-16.13c0-4.6-1.71-7.16-6.24-7.16-4.93,0-7.49,3.28-7.49,9v15.11c0,2.59-2.1,4.7-4.7,4.7-2.59,0-4.7-2.1-4.7-4.7v-16.95c0-4.6-1.71-7.16-6.24-7.16-4.93,0-7.55,3.28-7.55,9l.05,15.11c0,2.6-2.15,4.71-4.75,4.71s-4.7-2.1-4.7-4.7v-31.54c0-.41.33-.73.73-.73h3.93c2.65,0,4.8,2.15,4.8,4.8h0c2.56-3.55,6.04-5.58,10.71-5.58,5.19,0,9.07,2.43,10.97,6.83,2.63-4.27,6.77-6.83,12.09-6.83,7.69,0,12.48,5.32,12.48,14.06v18.16c0,2.59-2.1,4.7-4.7,4.7Z"/>
      </g>
      <g id="icon">
        <circle id="lower_dot" data-name="lower dot" cx="79.19" cy="52.77" r="6.43"/>
        <path id="Strike_2" data-name="Strike 2" class="cls-1" d="M83.75,11.84c2.51,2.51,2.51,6.58,0,9.09l-36.39,36.39c-2.51,2.51-6.59,2.51-9.1,0s-2.51-6.59,0-9.09L74.65,11.84c2.51-2.51,6.58-2.51,9.09,0Z"/>
        <circle id="upper_dot" data-name="upper dot" cx="42.81" cy="16.39" r="6.43"/>
        <path id="strike_1" data-name="strike 1" class="cls-2" d="M1.88,57.31c-2.51-2.51-2.51-6.58,0-9.09L38.27,11.84l9.09,9.09L10.98,57.32c-2.51,2.51-6.59,2.51-9.1,0h0Z"/>
      </g>
    </g>
  </g>
</svg>