<svg width="8.16" height="8.16" viewBox="0 0 8.16 8.16" fill="none" xmlns="http://www.w3.org/2000/svg">
<path d="M0.0706787 0.0703125C2.27973 2.27953 2.27973 5.86109 0.0706787 8.07031V0.0703125Z" fill="#283845"/>
<path d="M8.07068 8.07031C5.86163 5.86109 5.86163 2.27953 8.07068 0.0703125L8.07068 8.07031Z" fill="#526372"/>
<path d="M8.07068 0.0703125C5.86146 2.27937 2.2799 2.27937 0.0706787 0.0703122L8.07068 0.0703125Z" fill="#394B5A"/>
<path d="M0.0706787 8.07031C2.2799 5.86126 5.86146 5.86126 8.07068 8.07031L0.0706787 8.07031Z" fill="#11202A"/>
<path d="M8.10583 0.105469C5.91639 2.29515 5.91639 5.84548 8.10583 8.03516L8.03552 8.10547L7.82654 7.90723C5.62548 5.91811 2.22728 5.98406 0.105835 8.10547L0.0355225 8.03516C2.22505 5.84546 2.22505 2.29516 0.0355225 0.105469L0.105835 0.0351562C2.29557 2.22486 5.8458 2.22488 8.03552 0.0351562L8.10583 0.105469Z" fill="#D4792F" stroke="#D4792F" stroke-width="0.1"/>
</svg>
