<svg width="12.16" height="12.16" viewBox="0 0 12.16 12.16" fill="none" xmlns="http://www.w3.org/2000/svg">
<path d="M0.0706787 0.0706787C3.38426 3.38414 3.38426 8.75648 0.0706787 12.0707V0.0706787Z" fill="#283845"/>
<path d="M12.0707 12.0707C8.7571 8.75648 8.7571 3.38414 12.0707 0.0706787L12.0707 12.0707Z" fill="#526372"/>
<path d="M12.0707 0.0706787C8.75685 3.38389 3.38451 3.38389 0.0706787 0.0706787L12.0707 0.0706787Z" fill="#394B5A"/>
<path d="M0.0706787 12.0707C3.38451 8.75673 8.75685 8.75673 12.0707 12.0707L0.0706787 12.0707Z" fill="#11202A"/>
<path d="M12.1058 0.105469C8.8119 3.39975 8.8119 8.74088 12.1058 12.0352L12.0355 12.1055L11.7211 11.8066C8.40966 8.8144 3.29736 8.91399 0.105835 12.1055L0.0355225 12.0352C3.32958 8.74085 3.32958 3.39977 0.0355225 0.105469L0.105835 0.0351562C3.4002 3.32947 8.74118 3.3295 12.0355 0.0351562L12.1058 0.105469Z" fill="#D4792F" stroke="#D4792F" stroke-width="0.1"/>
</svg>
