<svg width="4.16" height="4.16" viewBox="0 0 4.16 4.16" fill="none" xmlns="http://www.w3.org/2000/svg">
<path d="M0.0706787 0.0706787C1.17521 1.17492 1.17521 2.9657 0.0706787 4.07068V0.0706787Z" fill="#283845"/>
<path d="M4.07068 4.07068C2.96615 2.9657 2.96615 1.17492 4.07068 0.0706787L4.07068 4.07068Z" fill="#526372"/>
<path d="M4.07068 0.0706787C2.96607 1.17484 1.17529 1.17484 0.0706787 0.0706787L4.07068 0.0706787Z" fill="#394B5A"/>
<path d="M0.0706787 4.07068C1.17529 2.96579 2.96607 2.96579 4.07068 4.07068L0.0706787 4.07068Z" fill="#11202A"/>
<path d="M4.10583 0.105469C3.02088 1.19054 3.02088 2.95008 4.10583 4.03516L4.03552 4.10547L3.82458 3.91504C2.73326 3.02473 1.12319 3.08813 0.105835 4.10547L0.0355225 4.03516C1.12052 2.95007 1.12052 1.19055 0.0355225 0.105469L0.105835 0.0351562C1.19094 1.12024 2.95043 1.12025 4.03552 0.0351562L4.10583 0.105469Z" fill="#D4792F" stroke="#D4792F" stroke-width="0.1"/>
</svg>
